<?xml version="1.0" standalone="no"?><!DOCTYPE svg PUBLIC "-//W3C//DTD SVG 1.1//EN" "http://www.w3.org/Graphics/SVG/1.1/DTD/svg11.dtd"><svg t="1505557366406" class="icon" style="" viewBox="0 0 1024 1024" version="1.1" xmlns="http://www.w3.org/2000/svg" p-id="1046" xmlns:xlink="http://www.w3.org/1999/xlink" width="200" height="200"><defs><style type="text/css"></style></defs><path d="M829.7 195.7l-0.5-0.5-0.2 0.2c-0.6-0.7-1.2-1.4-1.9-2.1-12.5-12.6-32.8-12.6-45.5-0.1-12.6 12.5-12.7 32.9-0.3 45.5 0.7 0.7 1.5 1.4 2.2 2l-0.1 0.1 0.4 0.4C933 391.3 932.2 634 782 783.1s-392.8 148.3-541.9-1.8C91.4 631.6 91.8 390 240.6 240.8l-0.1-0.1c0.1-0.1 0.3-0.2 0.4-0.4 12.6-12.5 12.7-32.9 0.3-45.5-12.5-12.6-32.8-12.6-45.5-0.1-0.2 0.2-0.3 0.4-0.5 0.5l-0.2-0.2c-173.9 174.5-174.4 456.8-0.7 631.8 174.2 175.4 457.7 176.4 633.2 2.1s176.4-457.8 2.2-633.2z" fill="#4D4D4D" p-id="1047"></path><path d="M512.6 416.2c17.9 0 32.6-14.7 32.6-32.6V192.8c0-17.9-14.7-32.6-32.6-32.6-17.9 0-32.6 14.7-32.6 32.6v190.8c0 17.9 14.7 32.6 32.6 32.6z" fill="#4D4D4D" p-id="1048"></path><path d="M480.1 64.6a32.5 32.4 0 1 0 65 0 32.5 32.4 0 1 0-65 0Z" fill="#4D4D4D" p-id="1049"></path></svg>